<svg xmlns="http://www.w3.org/2000/svg" viewBox="0 0 512 512">
  <defs>
    <linearGradient id="bg" x1="0" y1="0" x2="1" y2="1">
      <stop offset="0%" stop-color="#F08C42"/>
      <stop offset="100%" stop-color="#D45828"/>
    </linearGradient>
  </defs>
  <rect width="512" height="512" rx="112" fill="url(#bg)"/>
  <g stroke="rgba(255,255,255,0.25)" stroke-width="2" fill="none">
    <line x1="256" y1="256" x2="256" y2="130"/>
    <line x1="256" y1="256" x2="376" y2="217"/>
    <line x1="256" y1="256" x2="330" y2="358"/>
    <line x1="256" y1="256" x2="182" y2="358"/>
    <line x1="256" y1="256" x2="136" y2="217"/>
  </g>
  <g fill="none" stroke="rgba(255,255,255,0.18)" stroke-width="1.5">
    <polygon points="256,214 296,243 281,290 231,290 216,243"/>
    <polygon points="256,172 336,230 305,324 207,324 176,230"/>
    <polygon points="256,130 376,217 330,358 182,358 136,217"/>
  </g>
  <polygon points="256,146 313,237 312,333 230,292 180,231" fill="rgba(255,255,255,0.25)" stroke="white" stroke-width="3" stroke-linejoin="round"/>
  <g fill="white">
    <circle cx="256" cy="146" r="8"/>
    <circle cx="313" cy="237" r="8"/>
    <circle cx="312" cy="333" r="8"/>
    <circle cx="230" cy="292" r="8"/>
    <circle cx="180" cy="231" r="8"/>
  </g>
</svg>
